<svg width="500" height="500" viewBox="0 0 500 500" fill="none" xmlns="http://www.w3.org/2000/svg">
<g clip-path="url(#clip0_411_12)">
<g opacity="0.41">
<path d="M492.7 293C493.2 285.2 493 277.3 492.1 269.5C487.9 232.8 469.1 198.3 441.5 173.9C431.6 165.2 420.4 157.4 414 145.9C403.2 126.6 404 104.3 390.6 85.2001C377.2 66.1001 357.6 51.2001 335.5 43.5001C269.6 20.7001 177.4 57.8001 185.7 137.2C185.7 137.5 185.8 137.9 185.8 138.4C186.9 154.9 174 168.8 157.5 169.1C96.5001 170.7 44.2001 217.5 33.0001 276.9C25.8001 315.1 37.6001 356.9 65.5001 383.9C86.3001 404.1 114.3 415.1 142.3 422.7C198.4 438 257.5 441.2 315.3 435.3C369.5 429.8 426.6 414.3 461.6 372.6C480.3 350.5 491 322 492.7 293Z" fill="#E1E2FE"/>
</g>
<g opacity="0.41">
<path d="M445.2 300.3C445.5 294.5 445.4 288.6 444.7 282.8C441.6 255.5 427.6 229.8 407 211.6C399.6 205.1 391.3 199.3 386.5 190.8C378.4 176.4 379.1 159.9 369.1 145.6C359.1 131.4 344.5 120.3 328 114.6C278.9 97.6001 210.3 125.3 216.4 184.4C216.4 184.6 216.4 184.9 216.5 185.3C217.3 197.6 207.7 207.9 195.4 208.2C150.1 209.3 111.2 244.2 102.8 288.4C97.3997 316.8 106.2 348 127 368.1C142.5 383.1 163.3 391.4 184.2 397C226 408.4 269.9 410.7 313 406.4C353.3 402.3 395.9 390.7 421.9 359.7C436 343.1 444 321.9 445.2 300.3Z" fill="#E1E2FE"/>
</g>
<g opacity="0.31">
<path d="M476.341 117.286C484.035 109.593 484.035 97.1193 476.341 89.4261C468.648 81.7328 456.175 81.7328 448.482 89.4261C440.788 97.1194 440.788 109.593 448.482 117.286C456.175 124.979 468.648 124.979 476.341 117.286Z" fill="#E1E2FE"/>
</g>
<g opacity="0.31">
<path d="M434.5 76.8001C434.5 80.6001 431.4 83.7001 427.6 83.7001C423.8 83.7001 420.7 80.6001 420.7 76.8001C420.7 73.0001 423.8 69.9001 427.6 69.9001C431.4 69.9001 434.5 73.0001 434.5 76.8001Z" fill="#E1E2FE"/>
</g>
<g opacity="0.31">
<path d="M161.591 84.4747C164.964 80.6751 164.619 74.8603 160.819 71.487C157.02 68.1138 151.205 68.4593 147.832 72.2589C144.458 76.0585 144.804 81.8733 148.603 85.2466C152.403 88.6198 158.218 88.2743 161.591 84.4747Z" fill="#E1E2FE"/>
</g>
<g opacity="0.31">
<path d="M89.4 466.9C100.943 466.9 110.3 457.543 110.3 446C110.3 434.457 100.943 425.1 89.4 425.1C77.8573 425.1 68.5 434.457 68.5 446C68.5 457.543 77.8573 466.9 89.4 466.9Z" fill="#E1E2FE"/>
</g>
<path opacity="0.47" d="M404.7 34.6001C399.4 38.6001 398.4 46.1001 402.3 51.4001C406.3 56.7001 416.5 61.4001 421.8 57.4001C427.1 53.4001 421.1 44.9001 420.2 38.4001C419 29.3001 410 30.6001 404.7 34.6001Z" fill="#ECF1F7"/>
<path opacity="0.47" d="M109.7 71.0001C102.6 61.0001 88.8001 58.6001 78.7001 65.7001C68.7001 72.8001 59.3001 91.6001 66.4001 101.6C73.5001 111.6 89.6001 101.1 101.8 99.7001C118.8 97.8001 116.7 81.0001 109.7 71.0001Z" fill="#E1E2FE"/>
<path opacity="0.47" d="M472.6 358.3C478.9 348.3 480.4 336 479.1 324.3C477.8 312.7 474.2 300.5 469.3 289.9C464.6 279.9 457.8 271 455.8 259.8C453.2 245.1 460 230.9 461.5 216.5C464.6 187.7 445.2 162.4 421.1 148.7C401.5 137.6 378.6 133.4 356 133.7C335.7 134 315.5 137.6 295.9 142.4C277 147.1 258.5 153.2 238.6 151.3C222.1 149.7 207.2 142.8 191.9 137.7C155.2 125.5 110.8 123.8 77.2005 142.4C55.7005 154.3 40.6005 173.7 33.9005 194.5C29.0005 209.7 27.6005 227.3 31.1005 242.7C35.1005 260 42.6005 275.3 40.6005 293.6C39.0005 308.6 33.5005 323.2 34.0005 338.4C34.4005 351.5 48.6005 370.2 63.3005 375.1C64.1005 375.4 62.7005 376.5 63.3005 377.1H451.1C459.6 372.5 467.5 366.4 472.6 358.3Z" fill="#E1E2FE"/>
<path opacity="0.81" d="M474.501 313.9C469.901 285 439.301 281 445.901 262.4C454.301 238.8 453.901 212.3 443.701 189.3C438.801 178.2 431.601 167.9 421.801 160.8C406.701 149.8 386.801 147.4 368.201 148.8C340.401 150.9 311.101 162.4 283.201 159.3C267.801 157.6 263.101 141.5 255.101 131C246.101 119 233.801 109.7 220.301 103.4C195.301 91.9001 165.401 90.8001 139.901 101.2C112.701 112.3 88.9008 139.5 90.5008 170.3C91.2008 184.5 97.2008 198.7 94.4008 212.7C91.0008 230.3 77.2008 246.2 67.2008 260.5C56.2008 276.3 49.5008 295.1 48.2008 314.3C46.7008 336.1 52.1008 358.3 63.5008 376.9H457.801C462.901 368.2 481.601 358.3 474.501 313.9Z" fill="#E1E2FE"/>
<path opacity="0.58" d="M434.5 463.9C436.985 463.9 439 461.885 439 459.4C439 456.915 436.985 454.9 434.5 454.9C432.015 454.9 430 456.915 430 459.4C430 461.885 432.015 463.9 434.5 463.9Z" fill="#3E479B"/>
<path d="M396.9 449.5C398.833 449.5 400.4 447.933 400.4 446C400.4 444.067 398.833 442.5 396.9 442.5C394.967 442.5 393.4 444.067 393.4 446C393.4 447.933 394.967 449.5 396.9 449.5Z" fill="#F7A9B4"/>
<path d="M139.6 453C141.533 453 143.1 451.433 143.1 449.5C143.1 447.567 141.533 446 139.6 446C137.667 446 136.1 447.567 136.1 449.5C136.1 451.433 137.667 453 139.6 453Z" fill="#F7A9B4"/>
<path d="M445.4 423C447.333 423 448.9 421.433 448.9 419.5C448.9 417.567 447.333 416 445.4 416C443.467 416 441.9 417.567 441.9 419.5C441.9 421.433 443.467 423 445.4 423Z" fill="#F7A9B4"/>
<path d="M452.9 49.3999C454.833 49.3999 456.4 47.8329 456.4 45.8999C456.4 43.9669 454.833 42.3999 452.9 42.3999C450.967 42.3999 449.4 43.9669 449.4 45.8999C449.4 47.8329 450.967 49.3999 452.9 49.3999Z" fill="#F7A9B4"/>
<path opacity="0.58" d="M69.5996 45.8999C72.0849 45.8999 74.0996 43.8852 74.0996 41.3999C74.0996 38.9146 72.0849 36.8999 69.5996 36.8999C67.1143 36.8999 65.0996 38.9146 65.0996 41.3999C65.0996 43.8852 67.1143 45.8999 69.5996 45.8999Z" fill="#EF929C"/>
<path opacity="0.58" d="M121.3 40.3999C123.233 40.3999 124.8 38.8329 124.8 36.8999C124.8 34.9669 123.233 33.3999 121.3 33.3999C119.367 33.3999 117.8 34.9669 117.8 36.8999C117.8 38.8329 119.367 40.3999 121.3 40.3999Z" fill="#3E479B"/>
<path opacity="0.58" d="M48 415.4C49.933 415.4 51.5 413.833 51.5 411.9C51.5 409.967 49.933 408.4 48 408.4C46.067 408.4 44.5 409.967 44.5 411.9C44.5 413.833 46.067 415.4 48 415.4Z" fill="#3E479B"/>
<path opacity="0.58" d="M330.5 62.2C329.9 65.1 327 67 324.1 66.4C321.2 65.8 319.3 62.9 319.9 60C320.5 57.1 323.4 55.2 326.3 55.8C329.2 56.4 331.1 59.3 330.5 62.2Z" fill="#EF929C"/>
<path d="M270.301 178H189.401C180.501 178 173.301 170.8 173.301 161.9V73.6C173.301 64.7 180.501 57.5 189.401 57.5H270.301C279.201 57.5 286.401 64.7 286.401 73.6V161.9C286.401 170.8 279.201 178 270.301 178Z" fill="white"/>
<path opacity="0.39" d="M270.301 178H189.401C180.501 178 173.301 170.8 173.301 161.9V73.6C173.301 64.7 180.501 57.5 189.401 57.5H270.301C279.201 57.5 286.401 64.7 286.401 73.6V161.9C286.401 170.8 279.201 178 270.301 178Z" fill="#F7A9B4"/>
<path d="M260.6 57.6001H169.8C159.4 57.6001 150.9 66.1001 150.9 76.5001V83.7001H242.7V76.5001C242.7 66.4001 250.6 58.1001 260.6 57.6001Z" fill="#F7A9B4"/>
<path d="M257.1 97.5H195C194.4 97.5 194 97.1 194 96.5C194 95.9 194.4 95.5 195 95.5H257.1C257.7 95.5 258.1 95.9 258.1 96.5C258.1 97.1 257.7 97.5 257.1 97.5Z" fill="white"/>
<path d="M257.1 123.7H195C194.4 123.7 194 123.3 194 122.7C194 122.1 194.4 121.7 195 121.7H257.1C257.7 121.7 258.1 122.1 258.1 122.7C258.1 123.3 257.7 123.7 257.1 123.7Z" fill="white"/>
<path d="M228 110.6H195C194.4 110.6 194 110.2 194 109.6C194 109 194.4 108.6 195 108.6H228C228.6 108.6 229 109 229 109.6C229 110.1 228.6 110.6 228 110.6Z" fill="white"/>
<path d="M264 110.6H236C235.4 110.6 235 110.2 235 109.6C235 109 235.4 108.6 236 108.6H264C264.6 108.6 265 109 265 109.6C265 110.1 264.6 110.6 264 110.6Z" fill="white"/>
<g opacity="0.81">
<path d="M254.1 347.2H231C230.4 347.2 230 346.8 230 346.2C230 345.6 230.4 345.2 231 345.2H254.1C254.7 345.2 255.1 345.6 255.1 346.2C255.1 346.8 254.6 347.2 254.1 347.2Z" fill="white"/>
<path d="M254.1 371.2H231C230.4 371.2 230 370.8 230 370.2C230 369.6 230.4 369.2 231 369.2H254.1C254.7 369.2 255.1 369.6 255.1 370.2C255.1 370.8 254.6 371.2 254.1 371.2Z" fill="white"/>
<path d="M271.7 395.4H128.7C127.2 395.4 126 394.2 126 392.7V318.3C126 316.8 127.2 315.6 128.7 315.6H271.7C273.2 315.6 274.4 316.8 274.4 318.3V392.7C274.4 394.2 273.2 395.4 271.7 395.4ZM128.7 317.6C128.3 317.6 128 317.9 128 318.3V392.7C128 393.1 128.3 393.4 128.7 393.4H271.7C272.1 393.4 272.4 393.1 272.4 392.7V318.3C272.4 317.9 272.1 317.6 271.7 317.6H128.7V317.6Z" fill="white"/>
<path opacity="0.66" d="M271.7 395.4H128.7C127.2 395.4 126 394.2 126 392.7V318.3C126 316.8 127.2 315.6 128.7 315.6H271.7C273.2 315.6 274.4 316.8 274.4 318.3V392.7C274.4 394.2 273.2 395.4 271.7 395.4ZM128.7 317.6C128.3 317.6 128 317.9 128 318.3V392.7C128 393.1 128.3 393.4 128.7 393.4H271.7C272.1 393.4 272.4 393.1 272.4 392.7V318.3C272.4 317.9 272.1 317.6 271.7 317.6H128.7V317.6Z" fill="white"/>
<path d="M143.5 380.3H179.7C180.4 380.3 180.9 379.7 180.9 379.1V330.1C180.9 329.4 180.3 328.9 179.7 328.9H143.5C142.8 328.9 142.3 329.5 142.3 330.1V379.1C142.3 379.8 142.9 380.3 143.5 380.3Z" fill="white"/>
<path d="M254.1 335.5H190.6C190 335.5 189.6 335.1 189.6 334.5C189.6 333.9 190 333.5 190.6 333.5H254.1C254.7 333.5 255.1 333.9 255.1 334.5C255.1 335.1 254.6 335.5 254.1 335.5Z" fill="white"/>
<path d="M254.1 358.8H190.6C190 358.8 189.6 358.4 189.6 357.8C189.6 357.2 190 356.8 190.6 356.8H254.1C254.7 356.8 255.1 357.2 255.1 357.8C255.1 358.4 254.6 358.8 254.1 358.8Z" fill="white"/>
<path d="M224.8 347.2H190.6C190 347.2 189.6 346.8 189.6 346.2C189.6 345.6 190 345.2 190.6 345.2H224.8C225.4 345.2 225.8 345.6 225.8 346.2C225.8 346.8 225.3 347.2 224.8 347.2Z" fill="white"/>
<path d="M224.8 371.2H190.6C190 371.2 189.6 370.8 189.6 370.2C189.6 369.6 190 369.2 190.6 369.2H224.8C225.4 369.2 225.8 369.6 225.8 370.2C225.8 370.8 225.3 371.2 224.8 371.2Z" fill="white"/>
<path d="M213.6 382.3H190.5C189.9 382.3 189.5 381.9 189.5 381.3C189.5 380.7 189.9 380.3 190.5 380.3H213.6C214.2 380.3 214.6 380.7 214.6 381.3C214.6 381.9 214.2 382.3 213.6 382.3Z" fill="white"/>
</g>
<g opacity="0.81">
<path d="M452.9 219.1H429.8C429.2 219.1 428.8 218.7 428.8 218.1C428.8 217.5 429.2 217.1 429.8 217.1H452.9C453.5 217.1 453.9 217.5 453.9 218.1C453.9 218.7 453.4 219.1 452.9 219.1Z" fill="white"/>
<path d="M452.9 243.1H429.8C429.2 243.1 428.8 242.7 428.8 242.1C428.8 241.5 429.2 241.1 429.8 241.1H452.9C453.5 241.1 453.9 241.5 453.9 242.1C453.9 242.7 453.4 243.1 452.9 243.1Z" fill="white"/>
<path d="M470.5 267.3H327.5C326 267.3 324.8 266.1 324.8 264.6V190.2C324.8 188.7 326 187.5 327.5 187.5H470.5C472 187.5 473.2 188.7 473.2 190.2V264.6C473.2 266.1 472 267.3 470.5 267.3ZM327.5 189.5C327.1 189.5 326.8 189.8 326.8 190.2V264.6C326.8 265 327.1 265.3 327.5 265.3H470.5C470.9 265.3 471.2 265 471.2 264.6V190.2C471.2 189.8 470.9 189.5 470.5 189.5H327.5V189.5Z" fill="white"/>
<path opacity="0.66" d="M470.5 267.3H327.5C326 267.3 324.8 266.1 324.8 264.6V190.2C324.8 188.7 326 187.5 327.5 187.5H470.5C472 187.5 473.2 188.7 473.2 190.2V264.6C473.2 266.1 472 267.3 470.5 267.3ZM327.5 189.5C327.1 189.5 326.8 189.8 326.8 190.2V264.6C326.8 265 327.1 265.3 327.5 265.3H470.5C470.9 265.3 471.2 265 471.2 264.6V190.2C471.2 189.8 470.9 189.5 470.5 189.5H327.5V189.5Z" fill="white"/>
<path d="M342.399 252.2H378.599C379.299 252.2 379.799 251.6 379.799 251V202C379.799 201.3 379.199 200.8 378.599 200.8H342.399C341.699 200.8 341.199 201.4 341.199 202V251C341.099 251.7 341.699 252.2 342.399 252.2Z" fill="white"/>
<path d="M452.899 207.5H389.399C388.799 207.5 388.399 207.1 388.399 206.5C388.399 205.9 388.799 205.5 389.399 205.5H452.899C453.499 205.5 453.899 205.9 453.899 206.5C453.899 207.1 453.399 207.5 452.899 207.5Z" fill="white"/>
<path d="M452.899 230.8H389.399C388.799 230.8 388.399 230.4 388.399 229.8C388.399 229.2 388.799 228.8 389.399 228.8H452.899C453.499 228.8 453.899 229.2 453.899 229.8C453.899 230.3 453.399 230.8 452.899 230.8Z" fill="white"/>
<path d="M423.599 219.1H389.399C388.799 219.1 388.399 218.7 388.399 218.1C388.399 217.5 388.799 217.1 389.399 217.1H423.599C424.199 217.1 424.599 217.5 424.599 218.1C424.599 218.7 424.199 219.1 423.599 219.1Z" fill="white"/>
<path d="M423.599 243.1H389.399C388.799 243.1 388.399 242.7 388.399 242.1C388.399 241.5 388.799 241.1 389.399 241.1H423.599C424.199 241.1 424.599 241.5 424.599 242.1C424.599 242.7 424.199 243.1 423.599 243.1Z" fill="white"/>
<path d="M412.499 254.2H389.399C388.799 254.2 388.399 253.8 388.399 253.2C388.399 252.6 388.799 252.2 389.399 252.2H412.499C413.099 252.2 413.499 252.6 413.499 253.2C413.499 253.8 412.999 254.2 412.499 254.2Z" fill="white"/>
</g>
<path d="M412.2 319.8H328C326.2 319.8 324.7 318.3 324.7 316.5V286C324.7 284.2 326.2 282.7 328 282.7H412.2C414 282.7 415.5 284.2 415.5 286V316.5C415.5 318.4 414 319.8 412.2 319.8Z" fill="#F7A9B4"/>
<path d="M346.8 312H439.2C442 312 444.3 314.3 444.3 317.1V345.4C444.3 348.2 442 350.5 439.2 350.5H346.8C344 350.5 341.7 348.2 341.7 345.4V317.1C341.7 314.3 344 312 346.8 312Z" fill="white"/>
<path opacity="0.74" d="M346.8 312H439.2C442 312 444.3 314.3 444.3 317.1V345.4C444.3 348.2 442 350.5 439.2 350.5H346.8C344 350.5 341.7 348.2 341.7 345.4V317.1C341.7 314.3 344 312 346.8 312Z" fill="#6D6CD4"/>
<path d="M411.7 335.7C409.3 335.7 407.3 333.7 407.3 331.3C407.3 328.9 409.3 326.9 411.7 326.9C414.1 326.9 416.1 328.9 416.1 331.3C416.1 333.7 414.1 335.7 411.7 335.7ZM411.7 327.9C409.8 327.9 408.3 329.4 408.3 331.3C408.3 333.2 409.8 334.7 411.7 334.7C413.6 334.7 415.1 333.2 415.1 331.3C415.1 329.4 413.6 327.9 411.7 327.9Z" fill="white"/>
<path d="M393.299 335.7C390.899 335.7 388.899 333.7 388.899 331.3C388.899 328.9 390.899 326.9 393.299 326.9C395.699 326.9 397.699 328.9 397.699 331.3C397.699 333.7 395.799 335.7 393.299 335.7ZM393.299 327.9C391.399 327.9 389.899 329.4 389.899 331.3C389.899 333.2 391.399 334.7 393.299 334.7C395.199 334.7 396.699 333.2 396.699 331.3C396.699 329.4 395.199 327.9 393.299 327.9Z" fill="white"/>
<path d="M376.2 335.7C373.8 335.7 371.8 333.7 371.8 331.3C371.8 328.9 373.8 326.9 376.2 326.9C378.6 326.9 380.6 328.9 380.6 331.3C380.6 333.7 378.6 335.7 376.2 335.7ZM376.2 327.9C374.3 327.9 372.8 329.4 372.8 331.3C372.8 333.2 374.3 334.7 376.2 334.7C378.1 334.7 379.6 333.2 379.6 331.3C379.6 329.4 378.1 327.9 376.2 327.9Z" fill="white"/>
<path d="M85.2998 228.1H84.2998C83.9998 228.1 83.7998 227.9 83.7998 227.6C83.7998 227.3 83.9998 227.1 84.2998 227.1H85.2998C85.5998 227.1 85.7998 227.3 85.7998 227.6C85.7998 227.9 85.5998 228.1 85.2998 228.1Z" fill="white"/>
<path d="M372.8 393H370.8C370.5 393 370.3 392.8 370.3 392.5C370.3 392.2 370.5 392 370.8 392H372.8C373.1 392 373.3 392.2 373.3 392.5C373.3 392.8 373.1 393 372.8 393ZM351 393H349C348.7 393 348.5 392.8 348.5 392.5C348.5 392.2 348.7 392 349 392H351C351.3 392 351.5 392.2 351.5 392.5C351.5 392.8 351.3 393 351 393ZM329.2 393H327.2C326.9 393 326.7 392.8 326.7 392.5C326.7 392.2 326.9 392 327.2 392H329.2C329.5 392 329.7 392.2 329.7 392.5C329.7 392.8 329.5 393 329.2 393ZM307.5 393H305.5C305.2 393 305 392.8 305 392.5C305 392.2 305.2 392 305.5 392H307.5C307.8 392 308 392.2 308 392.5C308 392.8 307.7 393 307.5 393ZM285.7 393H283.7C283.4 393 283.2 392.8 283.2 392.5C283.2 392.2 283.4 392 283.7 392H285.7C286 392 286.2 392.2 286.2 392.5C286.2 392.8 285.9 393 285.7 393ZM263.9 393H261.9C261.6 393 261.4 392.8 261.4 392.5C261.4 392.2 261.6 392 261.9 392H263.9C264.2 392 264.4 392.2 264.4 392.5C264.4 392.8 264.2 393 263.9 393ZM242.1 393H240.1C239.8 393 239.6 392.8 239.6 392.5C239.6 392.2 239.8 392 240.1 392H242.1C242.4 392 242.6 392.2 242.6 392.5C242.6 392.8 242.4 393 242.1 393ZM220.3 393H218.3C218 393 217.8 392.8 217.8 392.5C217.8 392.2 218 392 218.3 392H220.3C220.6 392 220.8 392.2 220.8 392.5C220.8 392.8 220.6 393 220.3 393ZM198.5 393H197.9C197.4 393 196.9 393 196.5 392.9C196.2 392.9 196 392.6 196 392.4C196 392.1 196.3 391.9 196.5 391.9C196.9 391.9 197.4 392 197.8 392H198.4C198.7 392 198.9 392.2 198.9 392.5C199 392.8 198.8 393 198.5 393ZM388.2 382.9C388.1 382.9 388.1 382.9 388 382.9C387.7 382.8 387.6 382.5 387.7 382.3C387.9 381.7 388.1 381.1 388.2 380.5C388.3 380.2 388.5 380 388.8 380.1C389.1 380.2 389.3 380.4 389.2 380.7C389.1 381.4 388.9 382 388.7 382.7C388.6 382.7 388.4 382.9 388.2 382.9ZM183.3 380.2C183.1 380.2 182.8 380 182.8 379.8C182.7 379.1 182.7 378.4 182.7 377.8C182.7 377.5 182.9 377.3 183.2 377.3C183.5 377.3 183.7 377.5 183.7 377.8C183.7 378.4 183.7 379.1 183.8 379.7C183.8 379.9 183.6 380.2 183.3 380.2ZM183.1 358.5C182.8 358.5 182.6 358.3 182.6 358C182.5 357.4 182.4 356.7 182.3 356.1C182.2 355.8 182.4 355.6 182.7 355.5C183 355.4 183.2 355.6 183.3 355.9C183.5 356.6 183.6 357.2 183.6 357.9C183.6 358.2 183.4 358.4 183.1 358.5ZM168.4 345.2H166.4C166.1 345.2 165.9 345 165.9 344.7C165.9 344.4 166.1 344.2 166.4 344.2H168.4C168.7 344.2 168.9 344.4 168.9 344.7C168.9 344.9 168.6 345.2 168.4 345.2ZM146.6 345.2H144.6C144.3 345.2 144.1 345 144.1 344.7C144.1 344.4 144.3 344.2 144.6 344.2H146.6C146.9 344.2 147.1 344.4 147.1 344.7C147.1 344.9 146.8 345.2 146.6 345.2ZM124.8 345.2H122.8C122.5 345.2 122.3 345 122.3 344.7C122.3 344.4 122.5 344.2 122.8 344.2H124.8C125.1 344.2 125.3 344.4 125.3 344.7C125.3 344.9 125.1 345.2 124.8 345.2ZM103 345.2H101C100.7 345.2 100.5 345 100.5 344.7C100.5 344.4 100.7 344.2 101 344.2H103C103.3 344.2 103.5 344.4 103.5 344.7C103.5 344.9 103.3 345.2 103 345.2ZM81.2002 345.2H79.2002C78.9002 345.2 78.7002 345 78.7002 344.7C78.7002 344.4 78.9002 344.2 79.2002 344.2H81.2002C81.5002 344.2 81.7002 344.4 81.7002 344.7C81.7002 344.9 81.5002 345.2 81.2002 345.2ZM61.5002 339C61.3002 339 61.2002 338.9 61.1002 338.8C60.7002 338.2 60.3002 337.7 60.0002 337.1C59.9002 336.9 60.0002 336.6 60.2002 336.4C60.4002 336.3 60.7002 336.4 60.9002 336.6C61.2002 337.2 61.5002 337.7 61.9002 338.2C62.1002 338.4 62.0002 338.7 61.8002 338.9C61.7002 338.9 61.6002 339 61.5002 339ZM58.7002 317.7C58.4002 317.7 58.2002 317.5 58.2002 317.2V315.2C58.2002 314.9 58.4002 314.7 58.7002 314.7C59.0002 314.7 59.2002 314.9 59.2002 315.2V317.2C59.2002 317.5 59.0002 317.7 58.7002 317.7ZM58.7002 296C58.4002 296 58.2002 295.8 58.2002 295.5V293.5C58.2002 293.2 58.4002 293 58.7002 293C59.0002 293 59.2002 293.2 59.2002 293.5V295.5C59.2002 295.7 59.0002 296 58.7002 296ZM58.7002 274.2C58.4002 274.2 58.2002 274 58.2002 273.7V271.7C58.2002 271.4 58.4002 271.2 58.7002 271.2C59.0002 271.2 59.2002 271.4 59.2002 271.7V273.7C59.2002 274 59.0002 274.2 58.7002 274.2ZM58.7002 252.4C58.4002 252.4 58.2002 252.2 58.2002 251.9V249.9C58.2002 249.6 58.4002 249.4 58.7002 249.4C59.0002 249.4 59.2002 249.6 59.2002 249.9V251.9C59.2002 252.2 59.0002 252.4 58.7002 252.4ZM63.5002 232C63.4002 232 63.2002 231.9 63.1002 231.8C62.9002 231.6 62.9002 231.3 63.1002 231.1C63.6002 230.6 64.1002 230.2 64.7002 229.8C64.9002 229.6 65.2002 229.7 65.4002 229.9C65.6002 230.1 65.5002 230.4 65.3002 230.6C64.8002 231 64.3002 231.4 63.8002 231.8C63.8002 231.9 63.6002 232 63.5002 232Z" fill="white"/>
<path d="M388.9 361.1C388.6 361.1 388.4 360.9 388.4 360.6V359.6C388.4 359.3 388.6 359.1 388.9 359.1C389.2 359.1 389.4 359.3 389.4 359.6V360.6C389.4 360.9 389.2 361.1 388.9 361.1Z" fill="white"/>
<path d="M301.2 427.5H273.6C270 427.5 267 424.5 267 420.9V273H310V418.7C310 423.6 306.1 427.5 301.2 427.5Z" fill="#3E479B"/>
<path d="M303.7 427.5H286V273H310V421.2C310 424.7 307.2 427.5 303.7 427.5Z" fill="#4C65BA"/>
<path d="M212.3 131H349.8C380.5 131 405.4 155.9 405.4 186.6V284.4C405.4 286.6 403.6 288.5 401.3 288.5H160C159.7 288.5 159.5 288.3 159.5 288V183.8C159.5 154.6 183.1 131 212.3 131Z" fill="#599AF2"/>
<g opacity="0.07">
<path d="M229.3 152.5H333.2C363.9 152.5 388.8 177.4 388.8 208.1V284.4C388.8 286.6 387 288.5 384.7 288.5H177C176.7 288.5 176.5 288.3 176.5 288V205.3C176.5 176.1 200.1 152.5 229.3 152.5Z" fill="#ECF1F7"/>
</g>
<g opacity="0.65">
<path d="M400.9 289H249V276H405.5V284.4C405.5 286.9 403.4 289 400.9 289Z" fill="#4C65BA"/>
</g>
<g opacity="0.65">
<path d="M400.9 289H249V276H405.5V284.4C405.5 286.9 403.4 289 400.9 289Z" fill="#4C65BA"/>
</g>
<path d="M402 288.5H332.9V276.4H405.5V285C405.5 286.9 403.9 288.5 402 288.5Z" fill="#3E479B"/>
<path opacity="0.07" d="M405.5 187H256.5V276H405.5V187Z" fill="#373449"/>
<path d="M250.5 285H165.5C162.2 285 159.5 282.3 159.5 279V182.5C159.5 155.7 181.2 134 208 134C234.8 134 256.5 155.7 256.5 182.5V279C256.5 282.3 253.8 285 250.5 285Z" fill="#4C65BA"/>
<path d="M249.5 285H164.5V183.5C164.5 160 183.5 141 207 141C230.5 141 249.5 160 249.5 183.5V285Z" fill="#373449"/>
<path d="M252.9 272H182.5C180 272 177.9 269.9 177.9 267.4V225C177.9 221.8 180.5 219.2 183.7 219.2H250.6C254.5 219.2 257.6 222.3 257.6 226.2V267.3C257.5 269.9 255.5 272 252.9 272Z" fill="#6D6CD4"/>
<path opacity="0.56" d="M253.9 272H217.7H181.5C179.5 272 177.9 270.4 177.9 268.4V224.4C177.9 223.9 178.1 223.3 178.5 222.9C178.9 222.4 179.6 222.4 180.1 222.8L207.8 245.7L213.5 250.4C215.9 252.4 219.5 252.4 221.9 250.3L255.9 221.5C258 223.5 257.5 225.6 257.5 225.6V268.5C257.5 270.4 255.9 272 253.9 272Z" fill="#3E479B"/>
<path d="M179.501 272.5C179.201 272.5 179.001 272.4 178.801 272.2C178.401 271.8 178.501 271.2 178.901 270.8L208.801 244.2C209.201 243.8 209.801 243.9 210.201 244.3C210.601 244.7 210.501 245.3 210.101 245.7L180.201 272.3C180.001 272.4 179.801 272.5 179.501 272.5Z" fill="#6D6CD4"/>
<path d="M254.801 272.5C254.601 272.5 254.301 272.4 254.101 272.2L225.101 246.5C224.701 246.1 224.601 245.5 225.001 245.1C225.401 244.7 226.001 244.6 226.401 245L255.401 270.7C255.801 271.1 255.901 271.7 255.501 272.1C255.301 272.3 255.001 272.5 254.801 272.5Z" fill="#6D6CD4"/>
<path d="M250 285H171V280.1C171 275.6 174.6 272 179.1 272H250V285Z" fill="#F28393"/>
<path d="M247.1 303H104.2C98.8 303 94.5 298.6 94.5 293.3V285H258.5V291.6C258.5 297.9 253.4 303 247.1 303Z" fill="#599AF2"/>
<path d="M247.1 303H202.2C196.8 303 192.5 298.6 192.5 293.3V285H258.5V291.6C258.5 297.9 253.4 303 247.1 303Z" fill="#4C65BA"/>
<path d="M295.5 204C303.232 204 309.5 197.732 309.5 190C309.5 182.268 303.232 176 295.5 176C287.768 176 281.5 182.268 281.5 190C281.5 197.732 287.768 204 295.5 204Z" fill="#3E479B"/>
<path d="M295.5 194.5C293 194.5 291 192.5 291 190V101C291 98.5 293 96.5 295.5 96.5C298 96.5 300 98.5 300 101V190C300 192.5 298 194.5 295.5 194.5Z" fill="#3E479B"/>
<path d="M297.5 202C304.127 202 309.5 196.627 309.5 190C309.5 183.373 304.127 178 297.5 178C290.873 178 285.5 183.373 285.5 190C285.5 196.627 290.873 202 297.5 202Z" fill="#4C65BA"/>
<path d="M301.5 122.7V101H342.5L301.5 122.7Z" fill="#6D6CD4"/>
<path d="M301.5 122.7V101H342.5L301.5 122.7Z" fill="#6D6CD4"/>
<path d="M297.5 194.5C295 194.5 293 192.5 293 190V101C293 98.5 295 96.5 297.5 96.5C300 96.5 302 98.5 302 101V190C302 192.5 300 194.5 297.5 194.5Z" fill="#4C65BA"/>
<path d="M297.5 197C293.5 197 290.3 193.7 290.3 189.8C290.3 185.9 293.6 182.6 297.5 182.6C301.4 182.6 304.7 185.9 304.7 189.8C304.7 193.7 301.5 197 297.5 197ZM297.5 183.5C294.1 183.5 291.3 186.3 291.3 189.7C291.3 193.1 294.1 195.9 297.5 195.9C300.9 195.9 303.7 193.1 303.7 189.7C303.7 186.3 300.9 183.5 297.5 183.5Z" fill="#3E479B"/>
<path d="M143.3 192.2H60.5004C58.0004 192.2 55.9004 190.1 55.9004 187.6V137C55.9004 133.8 58.5004 131.2 61.7004 131.2H141C144.9 131.2 148 134.3 148 138.2V187.6C147.9 190.2 145.9 192.2 143.3 192.2Z" fill="#6D6CD4"/>
<path opacity="0.59" d="M143.8 192.2H102H60.1004C57.8004 192.2 55.9004 190.3 55.9004 188V137.1C55.9004 136.5 56.1004 135.9 56.5004 135.4C57.0004 134.8 57.8004 134.8 58.4004 135.2L90.4004 161.7L97.0004 167.2C99.8004 169.5 103.9 169.5 106.7 167.1L146 133.7C148.5 136 147.9 138.4 147.9 138.4V188C147.9 190.4 146.1 192.2 143.8 192.2Z" fill="#3E479B"/>
<path d="M58.7007 191.8C58.4007 191.8 58.2007 191.7 58.0007 191.5C57.6007 191.1 57.7007 190.5 58.1007 190.1L91.7007 160.2C92.1007 159.8 92.7007 159.9 93.1007 160.3C93.5007 160.7 93.4007 161.3 93.0007 161.7L59.4007 191.6C59.2007 191.7 59.0007 191.8 58.7007 191.8Z" fill="#6D6CD4"/>
<path d="M144.801 192C144.601 192 144.301 191.9 144.101 191.8L110.601 162.6C110.201 162.2 110.101 161.6 110.501 161.2C110.901 160.8 111.501 160.7 111.901 161.1L145.401 190.3C145.801 190.7 145.901 191.3 145.501 191.7C145.301 191.9 145.101 192 144.801 192Z" fill="#6D6CD4"/>
<path d="M205.7 248.4H98.5004C95.4004 248.4 92.9004 245.9 92.9004 242.8V176.6C92.9004 173.1 95.7004 170.2 99.3004 170.2H203.4C207.6 170.2 211 173.6 211 177.8V243.2C210.9 246.1 208.6 248.4 205.7 248.4Z" fill="#F7A9B4"/>
<path d="M205.6 248.4H151.9H98.3004C95.3004 248.4 92.9004 246 92.9004 243V177.7C92.9004 176.9 93.2004 176.1 93.7004 175.5C94.3004 174.8 95.4004 174.7 96.1004 175.3L137.1 209.3L145.6 216.3C149.2 219.3 154.5 219.3 158.1 216.2L208.5 173.4C211.7 176.4 210.9 179.4 210.9 179.4V242.9C210.9 246 208.5 248.4 205.6 248.4Z" fill="#F28393"/>
<path d="M96.0005 248C95.7005 248 95.4005 247.9 95.3005 247.7C94.9005 247.3 95.0005 246.7 95.4005 246.3L139.001 207.6C139.401 207.2 140.001 207.3 140.401 207.7C140.801 208.1 140.701 208.7 140.301 209.1L96.7005 247.8C96.5005 247.9 96.2005 248 96.0005 248Z" fill="#F7A9B4"/>
<path d="M207 248C206.8 248 206.5 247.9 206.3 247.8L163.2 210.3C162.8 209.9 162.7 209.3 163.1 208.9C163.5 208.5 164.1 208.4 164.5 208.8L207.6 246.3C208 246.7 208.1 247.3 207.7 247.7C207.6 247.9 207.3 248 207 248Z" fill="#F7A9B4"/>
<path d="M385.101 107.9C384.801 107.9 384.601 107.7 384.601 107.4V100.1C384.601 99.8001 384.801 99.6001 385.101 99.6001C385.401 99.6001 385.601 99.8001 385.601 100.1V107.4C385.601 107.7 385.401 107.9 385.101 107.9Z" fill="white"/>
<path d="M394.901 110.1C394.801 110.1 394.701 110.1 394.601 110C394.401 109.8 394.301 109.5 394.501 109.3L396.601 106.3C396.801 106.1 397.101 106 397.301 106.2C397.501 106.4 397.601 106.7 397.401 106.9L395.301 109.9C395.201 110 395.001 110.1 394.901 110.1Z" fill="white"/>
<path d="M375.001 110.1C374.801 110.1 374.701 110 374.601 109.9L372.501 106.9C372.301 106.7 372.401 106.4 372.601 106.2C372.801 106 373.101 106.1 373.301 106.3L375.401 109.3C375.601 109.5 375.501 109.8 375.301 110C375.201 110 375.101 110.1 375.001 110.1Z" fill="white"/>
</g>
<defs>
<clipPath id="clip0_411_12">
<rect width="500" height="500" fill="white"/>
</clipPath>
</defs>
</svg>
