<svg width="514" height="514" viewBox="0 0 514 514" fill="none" xmlns="http://www.w3.org/2000/svg">
<path fill-rule="evenodd" clip-rule="evenodd" d="M291.643 407.506L273.158 410.965C273.158 410.965 274.175 424.593 275.656 430.235C276.264 432.552 279.988 435.648 278.653 437.646C275.435 442.462 264.836 449.01 266.663 449.01C266.663 449.01 258.575 453.799 254.672 454.445C245.612 455.945 224.197 451.481 224.197 451.481C224.197 451.481 237.212 461.671 236.687 467.786C236.409 471.025 228.693 475.197 228.693 475.197C228.693 475.197 237.434 474.643 241.183 474.703C253.654 474.902 262.189 472.605 274.656 472.233C276.923 472.165 288.112 475.684 290.144 476.679C291.227 477.209 292.142 480.138 292.142 480.138C292.142 480.138 304.502 471.896 306.631 466.303C309.173 459.621 306.717 449.422 304.632 442.587C303.644 439.348 299.766 436.031 299.137 432.705C298.719 430.5 298.273 426.574 300.136 425.294C302.913 423.385 309.617 430.756 311.127 427.764C312.267 425.505 306.702 423.807 304.632 422.329C302.069 420.499 297.701 419.265 295.64 416.894C293.625 414.577 291.643 407.506 291.643 407.506Z" fill="#D26956" stroke="black"/>
<path fill-rule="evenodd" clip-rule="evenodd" d="M289.644 476.185C289.644 476.185 293.213 466.997 293.641 462.845C294.358 455.889 291.643 439.622 291.643 439.622C291.643 439.622 288.622 452.261 285.148 456.422C281.891 460.323 275.234 463.05 270.66 465.315C264.04 468.594 247.678 474.209 247.678 474.209C247.678 474.209 267.281 472.429 271.659 472.727C279.883 473.285 289.644 476.185 289.644 476.185Z" fill="#962D0F" stroke="black"/>
<path fill-rule="evenodd" clip-rule="evenodd" d="M281.651 444.563C281.651 444.563 272.105 449.177 268.162 450.986C263.102 453.308 256.25 457.715 250.676 457.904C243.031 458.163 230.692 455.433 230.692 455.433C230.692 455.433 234.641 460.554 237.187 464.821C238.501 467.025 234.189 472.727 234.189 472.727C234.189 472.727 255.058 468.476 261.667 463.833C264.014 462.184 268.991 459.73 270.66 457.41C273.432 453.556 281.651 444.563 281.651 444.563Z" fill="#962D0F" stroke="black"/>
<path fill-rule="evenodd" clip-rule="evenodd" d="M213.206 429.743C207.71 433.201 202.215 432.707 202.215 432.707L191.224 431.225L188.226 430.237C188.226 430.237 186.566 437.125 186.727 440.119C186.917 443.637 189.826 447.961 189.725 451.483C189.586 456.309 184.925 462.487 182.731 466.8C180.413 471.356 178.746 476.441 174.237 478.164C168.357 480.411 160.184 471.585 154.253 472.235C150.986 472.592 143.314 482.878 140.265 484.093C134.065 486.563 132.15 487.042 126.276 487.058C121.767 487.07 110.242 485.664 109.29 490.022C108.795 492.285 114.738 492.712 115.285 494.963C116.084 498.256 110.688 501.954 110.788 505.339C110.857 507.658 112.366 510.923 114.286 512.256C118.485 515.172 125.669 511.799 130.772 511.268C140.058 510.302 151.743 506.371 160.748 504.351C169.579 502.37 177.042 503.73 185.229 499.904C187.641 498.777 199.39 496.096 197.219 492.493C196.104 490.642 196.97 485.678 199.217 485.081C200.65 484.701 201.232 488.589 202.714 488.54C204.307 488.487 206.459 486.144 206.212 484.587C205.805 482.026 198.878 482.728 198.718 480.14C198.276 472.997 200.021 466.815 201.715 461.365C203.37 456.041 209.709 444.566 209.709 444.566L213.206 429.743Z" fill="#D26956" stroke="black"/>
<path fill-rule="evenodd" clip-rule="evenodd" d="M171.739 485.081C170.734 483.093 161.627 480.858 157.251 479.152C154.868 478.223 149.257 476.187 149.257 476.187C149.257 476.187 143.725 481.39 140.764 482.611C136.714 484.28 130.646 484.204 126.276 484.587C120.544 485.089 110.788 489.034 110.788 489.034C110.788 489.034 123.011 490.364 128.274 490.516C133.819 490.676 141.214 490.185 146.759 490.022C151.406 489.886 157.639 490.138 162.247 489.528C165.454 489.104 172.738 487.057 172.738 487.057L171.739 485.081Z" fill="#962D0F" stroke="black"/>
<path fill-rule="evenodd" clip-rule="evenodd" d="M167.742 496.445L150.256 495.457C150.256 495.457 138.707 495.621 133.77 495.951C128.056 496.334 119.363 494.525 114.785 497.928C111.291 500.524 109.289 506.734 111.787 510.28C114.359 513.93 120.547 511.154 124.277 510.774C130.424 510.149 138.282 507.378 144.261 505.833C149.221 504.551 160.748 501.386 160.748 501.386L167.742 496.445Z" fill="#962D0F" stroke="black"/>
<path fill-rule="evenodd" clip-rule="evenodd" d="M225.696 418.873C217.203 425.79 218.24 423.181 215.704 425.79C213.975 427.568 213.166 431.179 211.207 432.707C208.714 434.653 204.386 435.988 201.215 436.166C197.84 436.355 192.83 435.827 190.224 433.695C188.207 432.046 187.558 428.245 186.727 425.79C185.7 422.756 185.278 418.441 184.229 415.414C183.055 412.025 179.233 404.544 179.233 404.544L225.696 418.873Z" fill="#F0F0F0" stroke="black"/>
<path fill-rule="evenodd" clip-rule="evenodd" d="M15.365 23.6642C13.8564 14.8614 24.9887 10.7713 30.3529 7.07644C33.9367 4.60835 45.9703 1.4001 50.3368 1.42965C56.468 1.47115 63.3893 5.30788 66.7526 8.13519C75.7573 15.7051 83.8469 24.7881 90.3047 33.1927C95.6396 40.1361 102.05 50.4386 106.363 58.2502C112.698 69.725 119.57 85.7999 122.779 98.4833C126.525 113.297 127.024 133.51 127.775 148.598C128.069 154.52 127.005 163.893 127.775 169.774C128.854 178.026 130.925 186.868 132.057 194.832C132.552 198.317 136.247 202.588 138.837 201.89C148.223 199.36 164.807 194.192 176.307 193.773C185.385 193.442 199.337 193.152 209.137 194.126C222.153 195.419 239.35 198.804 251.96 202.243C256.792 203.561 263.025 206.006 267.661 207.89C283.79 214.442 305.47 226.124 321.904 231.889C338.153 237.589 349.025 241.771 376.146 246.006C403.267 250.242 414.877 263.089 431.102 266.828C441.021 269.115 455.989 266.876 472.498 266.475C478.4 266.332 495.984 271.275 497.477 274.946C492.963 279.625 470.356 283.769 470.356 283.769C470.356 283.769 498.917 280.335 506.042 288.357C509.716 292.493 515.32 295.062 511.394 304.238C507.877 312.461 479.004 305.765 468.215 312.355C468.865 318.643 467.158 318.781 464.647 319.414C453.184 322.302 435.951 330.289 425.035 337.413C414.788 344.102 403.298 356.163 393.275 363.176C378.573 373.465 357.032 384.152 340.461 390.704C324.933 396.843 304.641 402.681 289.073 407.997C279.451 411.282 266.398 416.381 256.242 418.232C231.397 422.759 201.498 416.938 176.663 411.879C163.4 409.177 141.304 401.252 129.558 394.586C105.346 380.843 82.4321 353.904 59.9712 334.589C47.9448 324.246 36.6409 303.192 33.2067 286.944C27.8429 261.566 32.8995 247.647 35.3479 232.594C37.5632 218.974 44.5208 205.141 49.2657 193.419C53.5359 182.869 61.8596 169.531 64.9671 158.48C67.7426 148.611 66.7157 133.99 64.9671 123.893C63.3504 114.559 61.0231 105.268 56.4025 97.7764C51.8265 90.3582 50.9534 86.2769 43.9126 80.1303C39.5461 76.3181 22.5008 65.3075 22.5008 65.3075L15.3637 23.6623L15.365 23.6642Z" fill="#F0F0F0" stroke="black"/>
<path fill-rule="evenodd" clip-rule="evenodd" d="M47.8391 47.6667C48.5528 56.8428 47.4823 57.1958 47.4823 57.1958C47.4823 57.1958 36.3568 60.8933 31.4238 61.7838C28.7824 62.2606 25.1852 62.3837 22.5024 62.4897C20.3629 62.5742 17.9078 62.3852 15.3653 62.4897C12.8682 62.5922 7.27835 65.3683 6.08701 63.1955C5.69832 62.4867 6.55125 61.2641 7.15756 60.7251C9.32342 58.7997 13.7615 59.0419 16.4358 57.9017C19.8258 56.4564 23.6992 53.2206 27.1415 51.902C29.3938 51.0393 32.2352 51.4626 34.6355 51.1962C37.0824 50.9246 40.8124 50.7327 43.2 50.1374C44.7327 49.7553 47.8391 47.667 47.8391 47.667V47.6667Z" fill="#FB9354" stroke="black"/>
<path fill-rule="evenodd" clip-rule="evenodd" d="M37.4901 23.6678C40.3449 35.3143 41.7724 39.9024 41.7724 39.9024L48.1958 46.6079C48.1958 46.6079 46.862 48.5167 46.0546 49.0783C44.087 50.4474 40.9417 51.5613 38.5607 51.9017C35.7977 52.2968 31.9919 50.5308 29.2824 51.1959C26.9475 51.769 24.5874 54.2444 22.5022 55.4309C20.0949 56.8007 16.7678 58.4165 14.2945 59.666C12.1627 60.743 9.52234 62.8286 7.15735 63.1952C5.76626 63.4109 3.65604 63.3097 2.51826 62.4894C1.55103 61.7921 0.688022 60.143 0.733985 58.9601C0.805828 57.1094 2.85387 55.171 3.9457 53.6663C5.58408 51.4084 8.24815 48.7711 10.0122 46.6078C11.4505 44.844 13.5413 42.5902 14.6513 40.6081C15.5377 39.0254 16.5261 36.7513 16.7925 34.9613C17.0268 33.3865 16.1647 31.2364 16.4356 29.6675C16.5729 28.8727 16.8075 27.6125 17.5062 27.197C18.611 26.54 20.4993 27.5547 21.7885 27.5499C22.9709 27.5454 25.7139 27.197 25.7139 27.197C25.7139 27.197 28.6348 25.0941 29.9961 24.3736C31.2232 23.7242 32.8876 22.6593 34.2784 22.6091C35.2934 22.5724 37.4901 23.6678 37.4901 23.6678V23.6678Z" fill="#FB9354" stroke="black"/>
<path fill-rule="evenodd" clip-rule="evenodd" d="M27.4951 38.4869C21.7854 42.0161 22.1423 45.1925 22.1423 45.1925L22.4991 44.4866L26.4246 40.6044L27.4951 38.4868V38.4869Z" fill="#AA0301" stroke="#AA0301"/>
<path fill-rule="evenodd" clip-rule="evenodd" d="M58.0825 11.3394C55.5815 10.4117 57.8044 10.3383 55.6854 10.4659C52.4262 10.6622 52.9713 10.2621 52.2788 11.0898C51.6829 11.8021 50.8492 12.8093 50.6386 13.71C50.3814 14.8096 50.518 16.4384 51.0172 17.4534C51.5909 18.62 52.963 19.9433 54.1713 20.4481C55.183 20.8709 56.7976 20.943 57.8302 20.5729C58.7374 20.2477 59.4626 18.7468 59.7226 17.8278C60.8543 13.8285 58.0825 11.3394 58.0825 11.3394H58.0825Z" fill="#AA0301" stroke="black"/>
<path d="M53.988 14.3283C53.9872 14.4353 54.0077 14.5414 54.0485 14.6405C54.0893 14.7395 54.1495 14.8297 54.2257 14.9056C54.3019 14.9816 54.3925 15.0419 54.4924 15.083C54.5922 15.1242 54.6993 15.1453 54.8075 15.1453C54.9156 15.1453 55.0227 15.1242 55.1226 15.083C55.2224 15.0419 55.3131 14.9816 55.3892 14.9056C55.4654 14.8297 55.5256 14.7395 55.5664 14.6405C55.6072 14.5414 55.6278 14.4353 55.6269 14.3283C55.6278 14.2213 55.6072 14.1152 55.5664 14.0161C55.5256 13.917 55.4654 13.8269 55.3892 13.7509C55.3131 13.675 55.2224 13.6147 55.1226 13.5736C55.0227 13.5324 54.9156 13.5112 54.8075 13.5112C54.6993 13.5112 54.5922 13.5324 54.4924 13.5736C54.3925 13.6147 54.3019 13.675 54.2257 13.7509C54.1495 13.8269 54.0893 13.917 54.0485 14.0161C54.0077 14.1152 53.9872 14.2213 53.988 14.3283V14.3283Z" fill="black" stroke="black" stroke-width="0.374989"/>
<path d="M51.0159 61.8774C64.516 65.3712 61.1817 64.7911 65.6511 65.496C70.3727 66.2407 81.5483 66.619 81.5483 66.619" stroke="black" stroke-width="0.5"/>
<path d="M32.0916 65.1187C52.1525 69.8602 50.7646 69.4859 52.1525 69.985C53.5404 70.4841 66.1572 72.9797 66.1572 72.9797" stroke="black" stroke-width="0.5"/>
<path d="M28.6846 67.7373C46.853 74.3506 41.2774 72.742 46.8529 74.3505C50.0886 75.2841 57.8291 76.7213 57.8291 76.7213" stroke="black" stroke-width="0.5"/>
<path d="M98.958 55.2563L103.122 56.8788" stroke="black" stroke-width="0.5"/>
<path d="M99.2128 61.6248C99.6912 61.8667 101.015 62.7832 101.61 63.3721C102.37 64.1237 100.603 62.0014 101.61 62.9976C102.042 63.4248 102.568 63.8937 102.872 64.4953C102.993 64.7354 103.384 64.9635 103.502 65.1193" stroke="black" stroke-width="0.5"/>
<path d="M94.9236 63.9954C94.949 64.0457 96.738 65.2167 97.447 65.7427C97.9927 66.1476 98.7683 66.6 99.3395 66.7412C99.4971 66.7801 100.101 67.4001 100.223 67.49" stroke="black" stroke-width="0.5"/>
<path d="M88.8676 60.377C89.2472 60.4708 90.1504 61.916 90.3816 62.3734L91.2648 64.1203L92.148 65.8672C92.4072 66.3799 92.5719 67.0351 93.0312 67.4893C93.0906 67.5481 93.0312 67.6557 93.0312 67.7388" stroke="black" stroke-width="0.5"/>
<path d="M92.0217 72.4805C92.3972 72.8519 93.4664 73.7084 94.1666 74.2278C94.9172 74.7847 95.418 74.8468 96.1853 75.2263C96.9574 75.6081 97.5868 75.7357 98.0777 76.0999C98.3299 76.2871 98.6272 76.3918 98.9609 76.4744" stroke="black" stroke-width="0.5"/>
<path d="M82.6851 68.4875C83.0697 68.7729 83.7793 69.9034 84.073 70.4844L84.1992 70.734" stroke="black" stroke-width="0.5"/>
<path d="M86.2175 76.8477C86.3788 77.1665 87.5203 77.6369 88.11 78.2202C88.7546 78.8577 88.7621 79.053 88.9932 79.9672C89.1992 80.7823 89.1749 81.3481 89.624 82.0884C90.0184 82.7386 90.2312 83.0633 90.6333 83.461C91.0049 83.8285 91.484 84.0526 91.895 84.4593" stroke="black" stroke-width="0.5"/>
<path d="M80.162 83.2112C81.011 84.0508 82.0029 84.6574 82.8116 85.4571C83.7322 86.3676 85.2178 86.8477 85.7134 87.8279C85.8412 88.0806 86.1655 88.158 86.3442 88.2022" stroke="black" stroke-width="0.5"/>
<path d="M80.0357 90.8225C80.0979 90.9454 79.5974 93.7053 79.7834 94.4411C79.9536 95.114 80.6516 95.8025 81.1713 96.188C81.9998 96.8024 82.5452 97.3319 83.19 97.8101C83.4294 97.9877 83.5697 98.185 83.8208 98.3092" stroke="black" stroke-width="0.5"/>
<path d="M73.3488 93.3181C74.2136 93.9594 71.7892 97.3296 71.3302 97.9349C71.1943 98.1141 71.7413 97.7397 71.961 97.6854" stroke="black" stroke-width="0.5"/>
<path d="M64.769 78.345C64.3392 78.9117 65.9794 79.1511 66.4092 79.7179" stroke="black" stroke-width="0.5"/>
<path d="M61.8674 81.3394C61.5852 81.7114 63.1213 84.8178 63.5076 85.5817C63.5342 85.6343 63.5917 85.665 63.6338 85.7066" stroke="black" stroke-width="0.5"/>
<path d="M54.8019 84.2097C54.9134 84.4302 54.6494 87.2652 54.9282 87.9539" stroke="black" stroke-width="0.5"/>
<path d="M61.8675 94.6907C61.9773 94.9078 57.7304 98.6574 56.947 99.4322C56.1928 100.178 55.7358 100.49 57.0732 99.4322" stroke="black" stroke-width="0.5"/>
<path d="M63.2551 96.1882C63.1809 96.2616 63.3905 98.8884 63.2551 99.5573C63.1215 100.217 62.6131 100.951 62.4975 101.179" stroke="black" stroke-width="0.5"/>
<path d="M68.5542 100.93C68.4369 101.509 67.6853 101.774 67.4178 102.303" stroke="black" stroke-width="0.5"/>
<path d="M68.8062 110.538C68.7503 110.814 68.001 110.973 68.1749 111.661" stroke="black" stroke-width="0.5"/>
<path d="M82.1807 102.801C82.1178 103.112 84.1501 104.231 84.5779 104.549C85.1011 104.937 85.7226 105.019 86.3442 105.173" stroke="black" stroke-width="0.5"/>
<path d="M87.3534 112.035C87.7209 112.308 89.1471 112.695 89.8768 113.657C89.9124 113.704 89.7926 113.741 89.7506 113.782" stroke="black" stroke-width="0.5"/>
<path d="M86.2179 116.028C86.5313 116.441 87.7339 117.486 88.2366 118.149C88.2931 118.224 88.3207 118.316 88.3628 118.399" stroke="black" stroke-width="0.5"/>
<path d="M77.5147 114.656C77.7431 114.958 74.2292 117.163 73.7297 118.151" stroke="black" stroke-width="0.5"/>
<path d="M80.7928 121.768C81.5684 122.79 82.2363 125.122 82.9377 126.509C83.3758 127.376 82.8462 126.69 82.8115 126.759" stroke="black" stroke-width="0.5"/>
<path d="M72.8441 122.017C73.066 122.456 70.5975 124.07 72.339 123.64" stroke="black" stroke-width="0.5"/>
<path d="M94.5411 106.415C94.7739 106.876 95.6449 107.842 96.4336 108.038" stroke="black" stroke-width="0.5"/>
<path d="M95.8102 116.524C96.0799 116.591 98.9203 118.977 98.9644 119.02" stroke="black" stroke-width="0.5"/>
<path d="M97.3203 126.759C97.4727 126.91 98.7001 127.626 99.2128 128.007C99.5475 128.255 99.2125 128.006 99.339 128.256" stroke="black" stroke-width="0.5"/>
<path d="M97.9511 136.741C98.6985 137.295 100.828 137.971 101.862 138.738C102.372 139.116 101.922 138.757 102.241 138.862" stroke="black" stroke-width="0.5"/>
<path d="M107.792 130.876C108.039 131.06 107.792 134.238 107.792 134.994C107.792 135.54 108.271 134.723 108.297 134.62" stroke="black" stroke-width="0.5"/>
<path d="M104.764 113.407C104.764 114.255 105.188 114.564 106.53 115.154C108.313 115.938 106.083 114.991 107.54 115.279C108.557 115.48 108.918 116.101 109.811 116.277C110.562 116.426 111.459 117.034 111.829 117.4C112.272 117.838 113.145 118.345 113.722 118.773C114.299 119.201 114.432 119.561 115.11 119.896" stroke="black" stroke-width="0.5"/>
<path d="M99.5918 144.602C99.9943 144.901 101.867 145.914 102.62 146.1C103.317 146.272 102.888 146.365 103.125 146.599" stroke="black" stroke-width="0.5"/>
<path d="M91.8955 148.47C92.373 148.588 92.1048 149.453 92.4002 149.843C92.9468 150.564 94.2772 151.45 94.7974 151.965" stroke="black" stroke-width="0.5"/>
<path d="M104.264 151.961C104.721 152.564 106.275 153.612 106.787 154.457" stroke="black" stroke-width="0.5"/>
<path d="M104.386 163.194C105.573 164.758 108.258 167.466 110.19 169.058C110.911 169.653 112.09 169.873 112.965 170.306C113.692 170.665 113.433 170.357 113.218 169.932" stroke="black" stroke-width="0.5"/>
<path d="M93.4121 164.817C93.9997 165.107 94.0862 166.024 94.6738 166.315" stroke="black" stroke-width="0.5"/>
<path d="M83.19 140.609C83.283 140.655 81.4236 141.527 81.4236 143.105C81.4236 143.943 81.6358 144.113 82.1806 143.978" stroke="black" stroke-width="0.5"/>
<path d="M82.9407 132.869C82.9407 133.434 84.6836 135.467 85.3379 136.114" stroke="black" stroke-width="0.5"/>
<path d="M71.7085 140.11C71.7085 140.846 70.5272 141.074 70.1945 141.732C70.0777 141.964 70.016 142.262 69.9422 142.481" stroke="black" stroke-width="0.5"/>
<path d="M118.517 154.834C118.481 154.904 121.032 159.045 121.293 160.074C121.368 160.373 121.461 160.574 121.545 160.823" stroke="black" stroke-width="0.5"/>
<path d="M120.788 147.971C121.01 148.851 123.147 151.283 123.942 152.463C124.388 153.125 124.881 153.571 125.204 154.21" stroke="black" stroke-width="0.5"/>
<path d="M114.984 137.365C115.318 137.86 116.634 138.383 117.129 139.362C117.265 139.631 117.582 139.72 117.76 139.861" stroke="black" stroke-width="0.5"/>
<path d="M112.334 147.596C112.763 148.444 114.752 149.508 115.363 150.717C115.389 150.769 115.447 150.8 115.489 150.841" stroke="black" stroke-width="0.5"/>
<path d="M108.802 121.643C109.049 122.131 110.57 123.31 111.199 124.138C112.006 125.202 112.952 126.017 113.975 126.883C115.973 128.578 117.973 130.631 119.652 132.623C120.404 133.516 121.135 134.496 121.797 135.368C121.854 135.443 121.881 135.535 121.923 135.618" stroke="black" stroke-width="0.5"/>
<path d="M119.781 117.78C119.806 117.813 119.781 117.696 119.781 117.78V117.78Z" stroke="black" stroke-width="0.5"/>
<path d="M117.129 123.514C117.742 124.324 119.96 125.501 120.914 126.759C121.471 127.493 122.225 129.169 122.428 129.504" stroke="black" stroke-width="0.5"/>
<path d="M117.255 113.782C117.532 114.146 122.365 115.873 123.69 116.527C123.969 116.665 123.729 116.605 123.816 116.777" stroke="black" stroke-width="0.5"/>
<path d="M113.722 106.17C114.271 106.442 115.793 108.111 116.498 109.041C116.906 109.579 117.394 109.733 117.76 109.915" stroke="black" stroke-width="0.5"/>
<path d="M117.882 117.651C118.343 118.259 119.284 119.03 120.027 119.398" stroke="black" stroke-width="0.5"/>
<path d="M103.502 99.1826C104.382 100.343 105.962 100.87 105.647 102.427C105.493 103.189 105.428 104.181 105.521 104.548C105.593 104.833 106.11 104.631 106.404 104.673" stroke="black" stroke-width="0.5"/>
<path d="M116.124 101.929C116.257 102.457 118.079 104.066 118.899 104.674" stroke="black" stroke-width="0.5"/>
<path d="M97.0695 89.9519C98.5057 91.0175 101.681 92.0993 102.116 93.8208" stroke="black" stroke-width="0.5"/>
<path d="M99.4651 80.2163C100.866 81.2553 103.713 83.1696 105.647 85.0826C105.843 85.2759 105.903 85.4196 106.026 85.5818" stroke="black" stroke-width="0.5"/>
<path d="M106.022 76.8486C107.798 78.6048 110.031 81.4376 112.078 83.4619L112.583 83.961" stroke="black" stroke-width="0.5"/>
<path d="M112.077 87.8271C113.049 88.7888 115.931 90.1252 117.376 91.197" stroke="black" stroke-width="0.5"/>
<path d="M70.5699 78.8447C70.7963 79.0685 71.3572 82.4558 71.5801 83.3367" stroke="black" stroke-width="0.5"/>
<path d="M75.3669 76.4731C75.4155 76.5212 75.3218 78.6662 75.4932 79.3437" stroke="black" stroke-width="0.5"/>
<path d="M77.6348 74.1013C79.5341 75.9797 84.0473 76.8761 85.9619 79.7163" stroke="black" stroke-width="0.5"/>
<path d="M82.811 153.087C83.1976 153.469 82.3904 154.085 82.1802 154.584C81.845 155.38 81.5855 161.906 83.4419 161.447" stroke="black" stroke-width="0.5"/>
<path d="M95.176 177.793C95.1626 177.824 95.7813 179.564 95.9329 180.163C96.3416 181.78 96.6041 183.198 97.8254 184.406C99.0884 185.655 99.7594 187.192 100.98 188.399C101.791 189.201 102.379 190.003 103.251 190.52C104.036 190.986 105.085 192.334 105.774 193.016C106.595 193.828 106.579 194.935 107.414 195.761C108.12 196.459 107.81 197.525 108.55 198.256C109.197 198.897 109.547 200.104 109.938 200.877C110.652 202.29 111.393 203.725 111.956 205.119C112.127 205.54 112.387 206.198 112.461 206.492" stroke="black" stroke-width="0.5"/>
<path d="M118.138 194.888C118.14 194.892 116.378 194.068 114.606 193.016C113.796 192.535 112.702 192.699 111.83 192.267C111.185 191.948 110.275 192.001 109.685 191.768C109.095 191.535 108.238 191.472 107.919 191.394" stroke="black" stroke-width="0.5"/>
<path d="M116.625 202.624C115.793 202.295 114.18 201.403 112.966 200.502C112.422 200.099 112.118 199.788 111.83 199.504" stroke="black" stroke-width="0.5"/>
<path d="M117.507 184.905C116.314 184.02 120.086 186.548 120.913 187.775C121.781 189.062 123.59 190.54 124.572 191.269C125.269 191.786 126.344 192.177 126.97 192.641C127.501 193.035 128.322 193.105 128.357 193.14" stroke="black" stroke-width="0.5"/>
<path d="M124.951 202.374C124.955 202.377 124.859 199.514 124.699 198.88L124.068 196.385C123.778 195.239 123.6 194.021 122.932 193.141C122.344 192.365 121.854 191.575 121.292 191.019C121.184 190.913 121.075 190.698 121.04 190.645" stroke="black" stroke-width="0.5"/>
<path d="M123.942 208.987C123.499 208.549 125.32 210.013 126.465 210.984C126.669 211.157 126.886 211.317 127.096 211.483C127.493 211.798 127.795 211.968 128.357 212.107" stroke="black" stroke-width="0.5"/>
<path d="M128.862 201.251C129.19 201.511 129.574 201.706 129.872 202" stroke="black" stroke-width="0.5"/>
<path d="M129.998 210.485C130.163 210.616 132.179 208.694 132.773 207.989C133.459 207.176 133.261 206.87 133.783 206.741" stroke="black" stroke-width="0.5"/>
<path d="M275.156 411.461C282.15 405.532 278.653 409.485 282.15 405.532C285.648 401.579 284.149 406.026 287.646 399.109C291.143 392.191 286.735 393.399 285.648 391.203C284.474 388.833 281.761 386.391 280.152 384.286C278.922 382.678 276.647 380.808 276.155 378.851C275.9 377.834 275.938 376.164 276.655 375.392C278.008 373.936 281.235 374.481 283.15 373.91C284.376 373.544 285.886 372.654 287.146 372.428C289.653 371.978 293.102 372.194 295.64 372.428C298.069 372.651 301.2 373.724 303.633 373.91C308.417 374.275 315.142 374.131 319.62 373.416C331.796 371.471 344.087 362.998 355.591 358.099C362.61 355.109 371.963 351.023 378.573 347.229C382.672 344.876 389.419 343.579 393.561 341.3C396.845 339.492 401.371 337.116 405.052 336.359C408.28 335.695 412.808 336.992 416.043 336.359C418.746 335.83 421.896 333.68 424.536 332.9C428.338 331.777 437.525 330.43 437.525 330.43" stroke="black" stroke-width="0.5"/>
<path d="M146.26 268.171C148.758 274.101 151.667 278.23 154.753 282.006C157.086 284.86 161.589 287.419 163.746 290.406C165.851 293.32 167.665 297.855 168.742 301.276C170.008 305.301 169.937 311.096 171.24 315.11C172.305 318.393 173.835 322.986 176.236 325.486C179.052 328.421 184.487 330.268 188.226 331.91C193.165 334.078 200.015 336.372 205.212 337.839C212.591 339.921 222.76 341.387 230.192 343.274C235.337 344.58 242.611 345.533 247.179 348.215C252.647 351.425 256.845 359.596 262.166 363.037C265.264 365.041 270.078 366.552 273.657 367.484C275.707 368.018 278.604 367.931 280.652 368.473C283.771 369.297 290.644 372.425 290.644 372.425" stroke="black" stroke-width="0.5"/>
<path d="M180.732 234.573C200.716 230.127 194.599 230.705 200.716 230.127C210.419 229.209 223.485 230.227 233.19 231.115C243.912 232.096 258.115 234.4 268.661 236.55C282.155 239.301 299.838 244.311 313.126 247.914C328.175 251.994 347.815 259.065 363.085 262.243C376.403 265.014 394.476 267.203 408.049 268.172C421.056 269.1 451.514 268.666 451.514 268.666" stroke="black" stroke-width="0.5"/>
<path d="M250.176 351.182C256.171 348.217 254.337 349.032 256.171 348.217C258.38 347.236 261.807 346.789 263.665 345.253C264.75 344.356 265.005 342.103 266.163 341.3C267.92 340.081 271.486 341.148 273.157 339.818C274.568 338.695 274.743 335.93 275.655 334.383C276.682 332.641 277.952 330.06 279.652 328.948C281.32 327.856 284.246 328.08 286.147 327.465C287.232 327.115 288.573 326.372 289.644 325.983C291.558 325.288 294.424 325.097 296.139 324.007C297.657 323.041 298.827 320.789 300.136 319.56C300.832 318.906 302.634 317.583 302.634 317.583C302.634 317.583 307.378 316.238 309.128 315.113C310.373 314.313 311.489 312.597 312.626 311.654C314.027 310.491 316.374 309.519 317.622 308.196C318.813 306.931 320.1 304.905 320.619 303.255C321.333 300.985 322.332 299.718 322.618 294.855C322.826 291.303 320.619 288.432 320.619 288.432C320.619 288.432 326.21 288.911 328.613 288.926C331.614 288.944 335.861 289.636 338.605 288.432C340.348 287.667 342.418 285.746 343.101 283.985C344.123 281.352 342.582 277.417 342.601 274.597C342.617 272.369 343.101 267.186 343.101 267.186C343.101 267.186 349.043 267.606 351.594 267.68C354.291 267.758 357.918 268.067 360.587 267.68C362.135 267.455 365.583 266.198 365.583 266.198V262.245" stroke="black" stroke-width="0.5"/>
<path d="M285.148 370.449C284.224 368.8 280.76 366.55 278.653 365.508C276.16 364.275 275.171 364.041 273.657 362.544C272.045 360.949 269.778 359.884 268.162 359.085C266.051 358.041 265.017 357.036 263.166 356.12C261.022 355.06 259.2 352.693 258.17 351.674C256.895 350.412 256.015 348.668 255.672 348.215" stroke="black" stroke-width="0.5"/>
<path d="M296.139 366.498C295.681 366.046 290.315 363.866 288.645 363.04C286.229 361.845 285.097 360.297 282.65 359.087C280.338 357.944 278.332 355.805 277.154 354.64C275.54 353.044 273.507 352.515 271.659 350.687C269.743 348.793 268.262 348.514 265.664 347.229C264.236 346.523 263.508 346.085 262.666 345.252" stroke="black" stroke-width="0.5"/>
<path d="M313.125 364.028C311.556 363.252 306.211 361.103 303.134 359.581C300.069 358.066 296.858 357.486 293.641 356.123C292.407 355.6 291.345 354.74 290.144 354.146C286.83 352.508 286.934 349.153 283.15 348.217C281.364 347.776 278.222 345.056 277.154 344.264C274.926 342.611 274.294 342.337 273.657 339.818" stroke="black" stroke-width="0.5"/>
<path d="M320.62 358.591C319.345 357.645 314.885 355.508 313.126 354.638C310.732 353.454 310.345 352.839 307.63 352.167C305.377 351.61 302.898 349.58 301.135 348.709L294.141 345.25C291.702 344.044 290.472 342.695 288.645 341.791C286.184 340.575 285.263 339.407 283.15 337.839C280.976 336.226 280.047 336.642 278.653 333.886" stroke="black" stroke-width="0.5"/>
<path d="M337.606 353.158C336.986 352.698 331.295 352.351 328.613 349.699C326.629 347.737 323.645 347.25 321.619 345.747C319.724 344.341 317.254 343.991 315.624 342.782C313.172 340.964 309.448 339.728 306.631 338.335C303.912 336.991 302.282 335.691 299.637 334.382C297.089 333.123 294.387 332.155 292.642 330.43C291.194 328.997 289.128 328.93 287.646 327.465" stroke="black" stroke-width="0.5"/>
<path d="M342.602 349.699C341.013 348.188 336.195 345.296 333.109 343.77C330.44 342.45 327.879 340.624 324.616 339.818C321.945 339.157 320.021 337.545 317.622 336.359C315.655 335.386 312.846 333.118 311.626 331.912C310.555 330.852 306.169 329.327 304.632 328.947C302.867 328.511 300.619 325.457 300.136 324.501L299.636 323.512" stroke="black" stroke-width="0.5"/>
<path d="M374.576 342.782C374.458 342.548 368.597 340.567 367.082 339.818C365.224 338.899 363.546 337.955 361.087 337.347C358.093 336.607 356.66 336.287 354.093 334.383C352.234 333.004 348.487 331.391 346.599 330.924C343.75 330.22 342.149 327.983 340.104 326.971C336.959 325.416 333.189 324.236 330.112 323.018C327.105 321.829 324.683 321.648 321.619 321.042C319.491 320.621 316.602 319.056 314.624 318.077C313.156 317.351 311.657 316.625 310.628 315.607" stroke="black" stroke-width="0.5"/>
<path d="M391.562 336.853L379.572 330.924C376.144 329.229 371.227 327.872 367.582 326.971C364.618 326.238 360.963 323.421 359.089 322.03C356.53 320.132 352.878 320.166 350.096 319.066C347.051 317.861 342.826 316.28 340.104 315.607C334.748 314.283 336.107 313.927 334.608 313.631C330.406 312.799 328.951 310.008 325.616 309.184C322.957 308.527 322.019 306.689 320.12 306.219" stroke="black" stroke-width="0.5"/>
<path d="M407.05 326.971C404.89 326.437 401.277 325.352 398.557 324.007C395.643 322.566 392.807 320.669 389.564 319.066C386.763 317.681 383.665 317.137 380.571 315.607C378.214 314.442 375.418 313.345 372.578 312.643C370.184 312.051 366.846 309.809 364.584 308.69C361.865 307.345 359.402 306.374 357.09 305.231C354.297 303.85 351.432 302.68 348.597 301.278C346.202 300.094 343.497 299.225 341.602 297.82C339.739 296.437 337.125 294.86 335.108 294.361C333.893 294.061 332.504 292.58 331.111 291.891" stroke="black" stroke-width="0.5"/>
<path d="M438.524 320.054C434.63 319.091 428.598 315.607 422.537 315.607C421.419 315.607 414.13 312.54 412.545 312.148C409.239 311.331 407.061 309.779 404.052 309.184C400.166 308.415 395.703 306.596 391.562 305.231C388.192 304.12 383.617 304.243 380.071 304.243C375.628 304.243 372.411 304.16 368.581 302.266C366.441 301.208 362.085 301.401 359.588 300.784C356.784 300.091 353.568 298.054 351.095 296.831C348.817 295.705 345.643 294.495 343.101 293.867C340.369 293.191 338.404 292.458 336.107 291.89C334.434 291.477 334.099 291.27 332.61 290.902" stroke="black" stroke-width="0.5"/>
<path d="M448.517 294.361C447.616 294.138 441.266 290.282 438.525 288.926C435.783 287.57 432.832 287.346 430.031 285.961C424.359 283.156 421.779 281.472 416.043 280.526C411.765 279.821 408.208 277 403.553 276.08C391.943 273.783 407.116 274.949 395.559 271.139C392.689 270.192 389.121 270.411 386.067 269.656C383.195 268.946 380.114 269.162 377.074 269.162C374.148 269.162 371.616 268.668 368.581 268.668C366.498 268.668 364.285 268.224 362.086 267.68" stroke="black" stroke-width="0.5"/>
<path d="M495.979 275.089C462.505 282.994 466.584 276.67 461.506 281.018C459.032 283.137 466.243 288.651 464.504 291.394C462.645 294.326 456.51 293.864 453.013 293.37C449.516 292.876 443.844 290.096 440.024 288.429C437.57 287.359 432.03 284.477 432.03 284.477" stroke="black" stroke-width="0.5"/>
<path d="M461.966 308.648C458.884 306.65 452.075 304.062 447.321 301.424C442.751 298.888 435.562 297.909 429.964 294.802C424.984 292.039 416.345 289.973 410.98 288.782C406.175 287.716 401.691 286.374 396.877 286.374C392.653 286.374 387.355 285.688 383.317 284.568L381.147 283.966C378.117 283.125 374.753 282.787 371.927 282.16C366.651 280.989 361.529 275.814 356.197 274.334C351.823 273.121 346.579 269.9 343.722 268.314L342.637 267.712" stroke="black" stroke-width="0.5751"/>
</svg>
