<svg width="32" height="32" viewBox="0 0 32 32" fill="none" xmlns="http://www.w3.org/2000/svg">
<g opacity="0.8">
<circle cx="16" cy="16" r="15" fill="white"/>
<path d="M6.62687 6.62703C9.0254 4.22851 12.3389 2.74497 15.9989 2.74497V15.9989L6.62687 6.62703Z" fill="#006C70" fill-opacity="0.9"/>
<path d="M2.74512 15.999C2.74512 12.607 4.03911 9.21493 6.62709 6.62695L15.999 15.9989L2.74512 15.999Z" fill="#00A1A7" fill-opacity="0.9"/>
<path d="M6.62703 25.3595C4.22851 22.9609 2.74497 19.6474 2.74497 15.9875H15.9989L6.62703 25.3595Z" fill="#00D7DF" fill-opacity="0.9"/>
<path d="M15.999 29.2412C12.607 29.2412 9.21493 27.9472 6.62695 25.3592L15.9989 15.9873L15.999 29.2412Z" fill="#99EFF2" fill-opacity="0.9"/>
<path d="M15.9991 29.2412C19.3911 29.2412 22.7831 27.9472 25.3711 25.3592L15.9992 15.9873L15.9991 29.2412Z" fill="#FFDA44" fill-opacity="0.9"/>
<path d="M25.371 25.3595C27.7695 22.9609 29.2531 19.6474 29.2531 15.9875H15.9992L25.371 25.3595Z" fill="#FF9811" fill-opacity="0.9"/>
<path d="M29.2539 15.999C29.2539 12.607 27.9599 9.21493 25.3719 6.62695L16 15.9989L29.2539 15.999Z" fill="#FF5023" fill-opacity="0.9"/>
<path d="M25.3712 6.62703C22.9726 4.22851 19.6591 2.74497 15.9992 2.74497V15.9989L25.3712 6.62703Z" fill="#D80027" fill-opacity="0.9"/>
</g>
</svg>
