<svg width="24" height="24" viewBox="0 0 24 24" fill="none" xmlns="http://www.w3.org/2000/svg">
<path d="M17.7043 16.4369C18.6761 15.2118 19.226 13.6478 19.226 12C19.226 8.02825 15.9727 4.77404 12 4.77404C10.3522 4.77404 8.78816 5.32302 7.5631 6.29567L17.7043 16.4369ZM12 19.226C13.6478 19.226 15.2118 18.677 16.4369 17.7043L6.29567 7.5631C5.32392 8.78816 4.77404 10.3522 4.77404 12C4.77404 15.9718 8.02734 19.226 12 19.226ZM12 3C16.9859 3 21 7.01412 21 12C21 16.9859 16.9859 21 12 21C7.01412 21 3 16.9859 3 12C3 7.01412 7.01412 3 12 3Z" fill="white"/>
</svg>
