<svg width="20" height="12" viewBox="0 0 20 12" fill="none" xmlns="http://www.w3.org/2000/svg">
<path d="M1.14091 0.970312C1.65653 1.24219 8.81903 5.14687 9.08622 5.2875C9.35341 5.42812 9.62528 5.49375 10.0472 5.49375C10.469 5.49375 10.7409 5.42812 11.0081 5.2875C11.2753 5.14687 18.4378 1.24219 18.9534 0.970312C19.1456 0.871875 19.469 0.69375 19.5393 0.492187C19.6612 0.135937 19.53 0 19.0097 0H10.0472H1.08466C0.564347 0 0.433097 0.140625 0.554972 0.492187C0.625285 0.698437 0.948722 0.871875 1.14091 0.970312Z" fill="#F5D861"/>
<path d="M19.3609 1.18115C18.9766 1.37803 15.5266 3.83428 13.2437 5.31084L17.0969 9.64678C17.1906 9.74053 17.2328 9.85303 17.1812 9.90928C17.125 9.96084 17.0031 9.93272 16.9047 9.84365L12.2828 5.94365C11.5844 6.39365 11.0922 6.70303 11.0078 6.7499C10.6469 6.93272 10.3937 6.95615 10.0469 6.95615C9.7 6.95615 9.44687 6.93272 9.08594 6.7499C8.99687 6.70303 8.50937 6.39365 7.81094 5.94365L3.18906 9.84365C3.09531 9.9374 2.96875 9.96553 2.9125 9.90928C2.85625 9.85772 2.89844 9.74053 2.99219 9.64678L6.84062 5.31084C4.55781 3.83428 1.07031 1.37803 0.685937 1.18115C0.273437 0.970217 0.25 1.21865 0.25 1.41084C0.25 1.60303 0.25 11.0202 0.25 11.0202C0.25 11.4562 0.892187 11.9999 1.35156 11.9999H10.0469H18.7422C19.2016 11.9999 19.75 11.4515 19.75 11.0202C19.75 11.0202 19.75 1.59834 19.75 1.41084C19.75 1.21397 19.7781 0.970217 19.3609 1.18115Z" fill="#F5D861"/>
</svg>
