<svg width="34" height="34" viewBox="0 0 34 34" fill="none" xmlns="http://www.w3.org/2000/svg">
<g clip-path="url(#clip0_513_65)">
<path fill-rule="evenodd" clip-rule="evenodd" d="M19.6651 23.5194C22.9778 23.1282 26.5011 21.9237 26.5011 16.2019C26.5011 14.5756 25.9284 13.2503 24.9956 12.2263C25.1461 11.8351 25.6275 10.3593 24.8141 8.3118C24.8141 8.3118 23.6095 7.92014 20.7793 9.81717C19.5748 9.48627 18.2499 9.27509 17.0153 9.27509C15.75 9.27509 14.4247 9.48627 13.2502 9.81717C10.3893 7.92014 9.18485 8.3118 9.18485 8.3118C8.37197 10.3593 8.85395 11.8351 9.00436 12.2263C8.07062 13.2502 7.49846 14.5756 7.49846 16.2019C7.49846 21.9237 11.0218 23.1282 14.3345 23.5194C13.9132 23.8814 13.5216 24.5734 13.3711 25.5373C12.5276 25.8984 10.3292 26.5913 9.00436 24.3026C9.00436 24.3026 8.22109 22.8875 6.74575 22.7973C6.74575 22.7973 5.26993 22.7672 6.62535 23.6999C6.62535 23.6999 7.61879 24.1522 8.28172 25.8682C8.28172 25.8682 9.18485 28.7296 13.3405 27.8259V30.3854C13.3405 30.7776 13.0397 31.2289 12.2869 31.1085C6.38423 29.1508 2.13828 23.5494 2.13828 16.9847C2.13828 8.76317 8.79325 2.10827 17.0153 2.10827C25.2063 2.10827 31.8918 8.76323 31.8617 16.9847C31.8617 23.5494 27.6153 29.1207 21.713 31.1085C20.9598 31.259 20.6589 30.8077 20.6589 30.3854V26.2604C20.659 24.8743 20.2066 23.9717 19.6651 23.5194ZM34 17.0153C34 7.61879 26.3807 0 17.0153 0C7.61879 0 0 7.61879 0 17.0153C0 26.3807 7.61879 34 17.0153 34C26.3807 34 34 26.3807 34 17.0153Z" fill="white"/>
</g>
<defs>
<clipPath id="clip0_513_65">
<rect width="34" height="34" fill="white"/>
</clipPath>
</defs>
</svg>
