<svg width="24" height="24" viewBox="0 0 24 24" fill="none" xmlns="http://www.w3.org/2000/svg">
<path d="M20.4614 3.28895C20.1552 3.078 19.7613 2.97644 19.3656 3.00639C18.97 3.03634 18.6045 3.19539 18.3489 3.44887L12.0001 9.79677L5.65115 3.44897C5.39629 3.1945 5.03055 3.03481 4.6344 3.00505C4.23825 2.97529 3.84414 3.07789 3.53877 3.29028C3.2334 3.50266 3.04178 3.80744 3.00606 4.13757C2.97035 4.46769 3.09347 4.79611 3.34833 5.05059L10.8487 12.5508C10.9894 12.6914 11.1654 12.8045 11.3644 12.8821C11.5634 12.9598 11.7804 13 12.0001 13C12.2198 13 12.4368 12.9598 12.6358 12.8821C12.8347 12.8045 13.0108 12.6914 13.1515 12.5508L20.6518 5.05048C20.9066 4.79575 21.0296 4.46716 20.9939 4.13689C20.9582 3.80661 20.7667 3.50164 20.4614 3.28895Z" fill="#F5D861"/>
<path d="M20.4614 11.289C20.1552 11.078 19.7613 10.9764 19.3656 11.0064C18.97 11.0363 18.6045 11.1954 18.3489 11.4489L12.0001 17.7968L5.65115 11.449C5.39629 11.1945 5.03055 11.0348 4.6344 11.0051C4.23825 10.9753 3.84414 11.0779 3.53877 11.2903C3.2334 11.5027 3.04178 11.8074 3.00606 12.1376C2.97035 12.4677 3.09347 12.7961 3.34833 13.0506L10.8487 20.5508C10.9894 20.6914 11.1654 20.8045 11.3644 20.8821C11.5634 20.9598 11.7804 21 12.0001 21C12.2198 21 12.4368 20.9598 12.6358 20.8821C12.8347 20.8045 13.0108 20.6914 13.1515 20.5508L20.6518 13.0505C20.9066 12.7957 21.0296 12.4672 20.9939 12.1369C20.9582 11.8066 20.7667 11.5016 20.4614 11.289Z" fill="#fcfafa"/>
</svg>
