<svg width="24" height="24" viewBox="0 0 24 24" fill="none" xmlns="http://www.w3.org/2000/svg">
<path d="M12 3C7.02975 3 3 7.029 3 12C3 16.9703 7.02938 21 12 21C16.971 21 21 16.9703 21 12C21 7.029 16.971 3 12 3ZM12 19.5C7.85812 19.5 4.5 16.1419 4.5 12C4.5 7.85738 7.85812 4.5 12 4.5C16.1426 4.5 19.5 7.85775 19.5 12C19.5 16.1419 16.1426 19.5 12 19.5Z" fill="white"/>
<path d="M13.3333 15.6829H12.6667V11.0074C12.6667 10.6381 12.3681 10.3395 12 10.3395H10.6667C10.2985 10.3395 10 10.6381 10 11.0074C10 11.3766 10.2985 11.6565 10.6667 11.6565H11.3333V15.6641H10.6667C10.2985 15.6641 10 15.9628 10 16.3321C10 16.7013 10.2985 17 10.6667 17H13.3333C13.7015 17 14 16.7013 14 16.3321C14 15.9628 13.7021 15.6829 13.3333 15.6829ZM12 9.00359C12.5523 9.00359 13 8.55503 13 8.00169C13 7.44835 12.5521 7 12 7C11.4479 7 11 7.44856 11 8.0019C11 8.55524 11.4477 9.00359 12 9.00359Z" fill="white"/>
</svg>
