<svg width="18" height="19" viewBox="0 0 18 19" fill="none" xmlns="http://www.w3.org/2000/svg">
<path d="M4.13468 18.002C3.2155 18.002 2.35138 17.6436 1.70157 16.9938L1.00605 16.2993C-0.33535 14.9579 -0.33535 12.7745 1.00605 11.4336L5.52425 6.91537C6.17406 6.26556 7.03818 5.90723 7.95735 5.90723C8.87652 5.90723 9.74064 6.26556 10.39 6.91537L11.085 7.6104C11.2772 7.80259 11.2772 8.11324 11.085 8.30543C10.8928 8.49762 10.5822 8.49762 10.39 8.30543L9.69493 7.6104C9.23092 7.14639 8.61355 6.8903 7.95735 6.8903C7.30066 6.8903 6.68329 7.14639 6.21928 7.6104L1.70108 12.1281C0.743079 13.0861 0.743079 14.6453 1.70108 15.6038L2.39611 16.2988C2.86012 16.7628 3.47749 17.0189 4.13419 17.0189C4.79039 17.0189 5.40775 16.7628 5.87176 16.2988L9.00039 13.1707C9.19258 12.9785 9.50323 12.9785 9.69542 13.1707C9.88761 13.3628 9.88761 13.6735 9.69542 13.8657L6.56729 16.9938C5.91797 17.6441 5.05385 18.002 4.13468 18.002Z" fill="#070F16"/>
<path d="M10.0426 12.0931C9.12389 12.0931 8.25928 11.7348 7.60996 11.085C7.41777 10.8928 7.41777 10.5822 7.60996 10.39C7.80215 10.1978 8.1128 10.1978 8.30499 10.39C8.769 10.854 9.38637 11.1101 10.0426 11.1101C10.6993 11.1101 11.3166 10.854 11.7806 10.39L16.2988 5.87176C17.2568 4.91376 17.2568 3.35461 16.2988 2.39661L15.6043 1.70059C14.6463 0.742588 13.0867 0.742588 12.1287 1.70059L9.00003 4.82922C8.80784 5.02141 8.49719 5.02141 8.30499 4.82922C8.1128 4.63703 8.1128 4.32638 8.30499 4.13418L11.4331 1.00605C12.7745 -0.33535 14.9574 -0.33535 16.2988 1.00605L16.9939 1.70157C18.3353 3.04298 18.3353 5.22589 16.9939 6.5668L12.4757 11.085C11.8264 11.7348 10.9617 12.0931 10.0426 12.0931Z" fill="#070F16"/>
</svg>
