<svg width="110" height="80" viewBox="0 0 110 80" fill="none" xmlns="http://www.w3.org/2000/svg">
<path d="M105.622 18.5321C102.703 12.4771 98.5075 8.07339 93.0348 4.77064C87.3798 1.65138 80.8126 0 73.1509 0H56.5506H47.4295H35.75C28.4167 0 24.75 0.909091 22 2.72727C18.3516 4.56214 15.5833 7.27273 13.75 10.9091C12.8333 12.7273 11.9167 16.3636 11.9167 21.8182C11.9167 23.6364 11.9167 26.3636 13.75 30C14.8203 32.1229 15.3246 32.9557 16.5 34.5455C17.6949 36.1616 17.6949 36.1212 20.1667 38.1818L16.2355 38.7156C13.6816 38.8991 11.3101 39.8165 8.75622 41.2844C6.20232 42.9358 4.19569 45.1376 2.37148 48.0734C0.547264 51.0092 0 54.4954 0 58.7156C0 62.7523 0.912106 66.422 2.73632 69.5413C4.56053 72.6606 7.47927 75.2294 11.4925 77.2477C15.5058 79.0826 20.6136 80 27.1808 80H47.4295H56.5506H72.0564C80.0829 80 87.0149 78.3486 92.67 75.2294C98.325 71.9266 102.703 67.3395 105.622 61.4679C108.541 55.4129 110 48.2569 110 40C110 31.5596 108.541 24.4037 105.622 18.5321ZM46.6998 71.3762H27.1808C20.796 71.3762 16.2355 70.0918 13.4992 67.7064C10.7629 65.3211 9.4859 62.2018 9.4859 58.7156C9.4859 55.9633 10.2156 53.578 11.675 51.1927C13.1343 48.8073 15.141 46.9725 17.6949 45.6881C20.2488 44.2202 23.3499 43.4862 26.9983 43.4862H47.0647V71.3762H46.6998ZM46.6998 35.2294H35.75C32.8313 35.2294 29.8715 34.7373 27.5 33.6364C25.1285 32.5354 23.2769 31.1093 22 29.0909C20.5406 27.0726 20.1667 24.5705 20.1667 21.8182C20.1667 19.6316 19.8494 15.9978 21.0833 13.6364C21.8167 12.2328 24.75 9.77273 27.5 9.09091C30.25 8.40909 34.8607 8.62385 40.3333 8.62385L46.6998 8.80734V35.2294ZM97.4129 56.6973C95.2239 61.4679 92.1227 65.1376 87.7446 67.5229C83.3665 70.0917 77.8939 71.3762 71.3267 71.3762H57.0978V8.62385H72.4212C78.6235 8.62385 83.9138 9.90826 87.927 12.4771C92.1227 15.0459 95.2239 18.5321 97.4129 23.3028C99.602 27.8899 100.514 33.578 100.514 40C100.514 46.422 99.602 51.9266 97.4129 56.6973Z" fill="white"/>
</svg>
