<svg width="40" height="40" viewBox="0 0 40 40" fill="none" xmlns="http://www.w3.org/2000/svg">
<g clip-path="url(#clip0_501_2)">
<path d="M20 40C31.0457 40 40 31.0457 40 20C40 8.9543 31.0457 0 20 0C8.9543 0 0 8.9543 0 20C0 31.0457 8.9543 40 20 40Z" fill="white"/>
<path d="M29.7003 18.8236L23.1063 13.188C22.6067 12.7184 22.0073 13.188 22.0073 13.9394V16.7572C17.3116 16.7572 13.3152 19.4811 11.4169 23.1443C10.7176 24.3653 10.3179 25.6803 10.0182 26.9952C9.81838 27.9345 11.317 28.4041 11.9165 27.5588C14.1145 24.2714 17.8111 22.1111 22.0073 22.1111V25.2106C22.0073 25.9621 22.6067 26.4317 23.1063 25.9621L29.7003 20.3265C30.0999 19.9507 30.0999 19.1993 29.7003 18.8236Z" fill="#252050"/>
</g>
<defs>
<clipPath id="clip0_501_2">
<rect width="40" height="40" fill="white"/>
</clipPath>
</defs>
</svg>
