<svg width="40" height="40" viewBox="0 0 40 40" fill="none" xmlns="http://www.w3.org/2000/svg">
<rect width="40" height="40" rx="20" fill="white"/>
<path d="M20.2326 27.9367H21.7264C21.7264 27.9367 22.1778 27.8844 22.4077 27.623C22.6204 27.3832 22.6123 26.9327 22.6123 26.9327C22.6123 26.9327 22.5828 24.8247 23.5142 24.5139C24.4314 24.2082 25.6095 26.5519 26.858 27.4538C27.8018 28.1355 28.5192 27.9862 28.5192 27.9862L31.8585 27.9367C31.8585 27.9367 33.6053 27.8234 32.7772 26.3791C32.7102 26.2611 32.2943 25.3111 30.2942 23.3588C28.2003 21.3147 28.4812 21.6465 31.0035 18.1119C32.5396 15.9595 33.1539 14.6448 32.9615 14.0828C32.7787 13.5472 31.6492 13.6886 31.6492 13.6886L27.8924 13.7117C27.8924 13.7117 27.6142 13.6721 27.4066 13.802C27.2047 13.93 27.075 14.226 27.075 14.226C27.075 14.226 26.4797 15.892 25.686 17.3088C24.0123 20.2976 23.3422 20.4554 23.0685 20.2696C22.4324 19.8376 22.5921 18.531 22.5921 17.6043C22.5921 14.7072 23.0094 13.4996 21.7779 13.1874C21.3683 13.0839 21.0685 13.0148 20.0232 13.0035C18.6823 12.9885 17.5463 13.0083 16.9042 13.3385C16.476 13.5588 16.1462 14.0502 16.3477 14.078C16.5962 14.1126 17.1587 14.2373 17.4573 14.6648C17.8434 15.2152 17.8292 16.4543 17.8292 16.4543C17.8292 16.4543 18.0509 19.8636 17.3118 20.2878C16.8039 20.5787 16.1088 19.9852 14.6164 17.2723C13.8523 15.884 13.2742 14.3473 13.2742 14.3473C13.2742 14.3473 13.1633 14.0618 12.9648 13.9089C12.7241 13.7231 12.3864 13.6642 12.3864 13.6642L8.81461 13.6869C8.81461 13.6869 8.27843 13.7037 8.08154 13.9481C7.90666 14.167 8.0675 14.6171 8.0675 14.6171C8.0675 14.6171 10.8646 21.4971 14.0307 24.9657C16.9355 28.1454 20.2326 27.9367 20.2326 27.9367Z" fill="#1F8EEF"/>
</svg>
