<svg width="24" height="24" viewBox="0 0 24 24" fill="none" xmlns="http://www.w3.org/2000/svg">
<path d="M12.1161 5.05844C12.6935 5.05844 13.2678 5.42278 13.7052 6.15147L19.7899 16.2934C20.6658 17.7497 19.9896 18.9416 18.2914 18.9416H5.94078C4.24257 18.9416 3.56638 17.7487 4.44224 16.2934L10.527 6.15147C10.9644 5.42278 11.5387 5.05844 12.1161 5.05844ZM12.1161 3C10.7822 3 9.56157 3.76162 8.76187 5.09034L2.67713 15.2343C1.86817 16.5816 1.77965 18.0184 2.43527 19.1762C3.09088 20.3341 4.36917 21 5.94078 21H18.2914C19.863 21 21.1423 20.3351 21.7969 19.1773C22.4515 18.0194 22.364 16.5826 21.5551 15.2353L15.4703 5.09343C14.6706 3.76162 13.45 3 12.1161 3Z" fill="white"/>
<path d="M12.0002 17.3002C12.7182 17.3002 13.3002 16.7182 13.3002 16.0002C13.3002 15.2822 12.7182 14.7002 12.0002 14.7002C11.2822 14.7002 10.7002 15.2822 10.7002 16.0002C10.7002 16.7182 11.2822 17.3002 12.0002 17.3002Z" fill="white"/>
<path d="M13.5 10C13.5 9.17 12.829 8.5 12 8.5C11.171 8.5 10.5 9.17 10.5 10C10.5 10.199 10.541 10.389 10.611 10.562C11.165 11.938 12 14 12 14C12 14 12.835 11.938 13.391 10.562C13.459 10.389 13.5 10.199 13.5 10Z" fill="white"/>
</svg>
