<svg width="40" height="40" viewBox="0 0 40 40" fill="none" xmlns="http://www.w3.org/2000/svg">
<g clip-path="url(#clip0_414_186)">
<path d="M20 40C8.956 40 0 31.044 0 20C0 8.956 8.956 0 20 0C31.044 0 40 8.956 40 20C40 31.044 31.044 40 20 40Z" fill="#25D366"/>
<path fill-rule="evenodd" clip-rule="evenodd" d="M28.5049 11.4885C26.25 9.24125 23.2459 8.00362 20.0491 8C13.4626 8 8.0982 13.3341 8.0982 19.8914C8.0982 21.9867 8.64737 24.035 9.6948 25.8372L8 32L14.3355 30.3462C16.0812 31.2943 18.0452 31.7937 20.0455 31.7937H20.0491C26.6355 31.7937 31.9964 26.4596 32 19.9023C32.0036 16.725 30.7634 13.7358 28.5049 11.4885ZM20.0527 29.7853H20.0491C18.267 29.7853 16.5177 29.3076 14.9938 28.4065L14.6301 28.193L10.8695 29.1737L11.8733 25.5259L11.6369 25.1532C10.644 23.579 10.1167 21.7624 10.1167 19.8914C10.1203 14.4415 14.5755 10.0084 20.0564 10.0084C22.7113 10.0084 25.2026 11.0398 27.0792 12.9071C28.9559 14.7744 29.9888 17.2606 29.9851 19.8987C29.9851 25.3522 25.5263 29.7853 20.0527 29.7853ZM25.5008 22.3812C25.2026 22.2328 23.7333 21.5127 23.4605 21.415C23.1878 21.3172 22.9877 21.2666 22.7877 21.5633C22.5877 21.8601 22.0167 22.5296 21.8421 22.7286C21.6675 22.9276 21.4929 22.953 21.1947 22.8046C20.8965 22.6562 19.9327 22.3414 18.7944 21.3281C17.907 20.5392 17.3069 19.5657 17.1323 19.269C16.9577 18.9723 17.1141 18.8094 17.2632 18.661C17.3978 18.5271 17.5614 18.3136 17.7106 18.1399C17.8597 17.9662 17.9106 17.8432 18.0088 17.6441C18.107 17.4451 18.0597 17.2714 17.9833 17.123C17.907 16.9747 17.3105 15.5127 17.0632 14.9156C16.8195 14.3365 16.5758 14.4162 16.3904 14.4053C16.2158 14.3981 16.0158 14.3945 15.8194 14.3945C15.6193 14.3945 15.2956 14.4704 15.0229 14.7672C14.7501 15.0639 13.9791 15.7841 13.9791 17.2461C13.9791 18.7081 15.0483 20.123 15.1975 20.3185C15.3466 20.5175 17.3032 23.5175 20.3 24.8058C21.0129 25.1134 21.5693 25.2943 22.0021 25.4318C22.7186 25.6598 23.3696 25.6273 23.8824 25.5513C24.457 25.4644 25.6499 24.8311 25.8973 24.1399C26.1446 23.4451 26.1446 22.8516 26.0718 22.7286C25.9991 22.6055 25.7991 22.5332 25.5008 22.3812Z" fill="white"/>
</g>
<defs>
<clipPath id="clip0_414_186">
<rect width="40" height="40" fill="white"/>
</clipPath>
</defs>
</svg>
